<svg xmlns="http://www.w3.org/2000/svg" xmlns:xlink="http://www.w3.org/1999/xlink" width="500" zoomAndPan="magnify" viewBox="0 0 375 374.999991" height="500" preserveAspectRatio="xMidYMid meet" version="1.0"><defs><g/><clipPath id="39ae75e04c"><path d="M 187.5 0 C 83.945312 0 0 83.945312 0 187.5 C 0 291.054688 83.945312 375 187.5 375 C 291.054688 375 375 291.054688 375 187.5 C 375 83.945312 291.054688 0 187.5 0 Z M 187.5 0 " clip-rule="nonzero"/></clipPath><clipPath id="bf582a76c3"><path d="M 285.199219 114.871094 L 348.320312 114.871094 L 348.320312 251.425781 L 285.199219 251.425781 Z M 285.199219 114.871094 " clip-rule="nonzero"/></clipPath></defs><g clip-path="url(#39ae75e04c)"><rect x="-37.5" width="450" fill="#000000" y="-37.499999" height="449.999989" fill-opacity="1"/></g><g fill="#ffffff" fill-opacity="1"><g transform="translate(21.526982, 250.601735)"><g><path d="M 17.640625 0 L 17.640625 -109.328125 L 1.578125 -109.328125 L 1.578125 -135.3125 L 60.8125 -135.3125 L 60.8125 -109.328125 L 44.734375 -109.328125 L 44.734375 0 Z M 17.640625 0 "/></g></g></g><g fill="#ffffff" fill-opacity="1"><g transform="translate(78.549956, 250.601735)"><g><path d="M 5.984375 0 L 5.984375 -135.3125 L 60.171875 -135.3125 L 60.171875 -109.171875 L 33.546875 -109.171875 L 33.546875 -82.859375 L 59.078125 -82.859375 L 59.078125 -57.34375 L 33.546875 -57.34375 L 33.546875 -26.3125 L 61.90625 -26.3125 L 61.90625 0 Z M 5.984375 0 "/></g></g></g><g fill="#ffffff" fill-opacity="1"><g transform="translate(138.093303, 250.601735)"><g><path d="M 37.5 1.265625 C 27.625 1.265625 19.71875 -1.832031 13.78125 -8.03125 C 7.851562 -14.226562 4.890625 -22.734375 4.890625 -33.546875 L 4.890625 -95.9375 C 4.890625 -109.375 7.566406 -119.503906 12.921875 -126.328125 C 18.273438 -133.160156 26.675781 -136.578125 38.125 -136.578125 C 48.101562 -136.578125 56.132812 -133.847656 62.21875 -128.390625 C 68.3125 -122.929688 71.359375 -115.054688 71.359375 -104.765625 L 71.359375 -81.4375 L 44.421875 -81.4375 L 44.421875 -101.453125 C 44.421875 -105.335938 43.945312 -108.015625 43 -109.484375 C 42.0625 -110.953125 40.4375 -111.6875 38.125 -111.6875 C 35.707031 -111.6875 34.050781 -110.847656 33.15625 -109.171875 C 32.269531 -107.492188 31.828125 -105.023438 31.828125 -101.765625 L 31.828125 -33.875 C 31.828125 -30.300781 32.347656 -27.695312 33.390625 -26.0625 C 34.441406 -24.4375 36.019531 -23.625 38.125 -23.625 C 42.320312 -23.625 44.421875 -27.039062 44.421875 -33.875 L 44.421875 -58.28125 L 71.671875 -58.28125 L 71.671875 -32.765625 C 71.671875 -10.078125 60.28125 1.265625 37.5 1.265625 Z M 37.5 1.265625 "/></g></g></g><g fill="#ffffff" fill-opacity="1"><g transform="translate(207.40308, 250.601735)"><g><path d="M 5.984375 0 L 5.984375 -135.3125 L 32.921875 -135.3125 L 32.921875 -86.953125 L 45.6875 -86.953125 L 45.6875 -135.3125 L 72.625 -135.3125 L 72.625 0 L 45.6875 0 L 45.6875 -61.4375 L 32.921875 -61.4375 L 32.921875 0 Z M 5.984375 0 "/></g></g></g><g clip-path="url(#bf582a76c3)"><path fill="#ffffff" d="M 285.199219 114.871094 L 348.320312 114.871094 L 348.320312 251.46875 L 285.199219 251.46875 Z M 285.199219 114.871094 " fill-opacity="1" fill-rule="nonzero"/></g><g fill="#000000" fill-opacity="1"><g transform="translate(337.518117, 246.057845)"><g><path d="M 0 -0.734375 L -42.3125 -4.828125 L -42.3125 -19.171875 L 0 -23.203125 L 0 -15.171875 L -6.84375 -14.578125 L -6.84375 -9.453125 L 0 -8.96875 Z M -13.59375 -10.09375 L -13.59375 -13.9375 L -35.125 -12.0625 L -35.125 -11.671875 Z M -13.59375 -10.09375 "/></g></g></g><g fill="#000000" fill-opacity="1"><g transform="translate(337.518117, 222.164048)"><g><path d="M 0 -1.875 L -42.3125 -1.875 L -42.3125 -18.8125 L -34.09375 -18.8125 L -34.09375 -10.390625 L -27.34375 -10.390625 L -27.34375 -18.375 L -19.21875 -18.375 L -19.21875 -10.390625 L 0 -10.390625 Z M 0 -1.875 "/></g></g></g><g fill="#000000" fill-opacity="1"><g transform="translate(337.518117, 202.507094)"><g><path d="M -42.3125 -1.875 L -42.3125 -14.875 C -42.3125 -16.945312 -41.84375 -18.546875 -40.90625 -19.671875 C -39.976562 -20.804688 -38.664062 -21.570312 -36.96875 -21.96875 C -35.28125 -22.363281 -33.125 -22.5625 -30.5 -22.5625 C -28.101562 -22.5625 -26.226562 -22.25 -24.875 -21.625 C -23.53125 -21 -22.597656 -19.914062 -22.078125 -18.375 C -21.804688 -19.65625 -21.160156 -20.582031 -20.140625 -21.15625 C -19.128906 -21.726562 -17.753906 -22.015625 -16.015625 -22.015625 L 0 -21.921875 L 0 -13.640625 L -16.546875 -13.640625 C -17.734375 -13.640625 -18.488281 -13.410156 -18.8125 -12.953125 C -19.144531 -12.492188 -19.3125 -11.65625 -19.3125 -10.4375 L 0 -10.4375 L 0 -1.875 Z M -26.65625 -12.515625 C -26.65625 -13.691406 -27.9375 -14.28125 -30.5 -14.28125 C -31.613281 -14.28125 -32.445312 -14.226562 -33 -14.125 C -33.5625 -14.03125 -33.945312 -13.851562 -34.15625 -13.59375 C -34.375 -13.332031 -34.484375 -12.957031 -34.484375 -12.46875 L -34.484375 -10.5 L -26.65625 -10.5 Z M -26.65625 -12.515625 "/></g></g></g><g fill="#000000" fill-opacity="1"><g transform="translate(337.518117, 179.00742)"><g><path d="M 0 -1.484375 L -42.3125 -1.484375 L -42.3125 -9.65625 L 0 -9.65625 Z M 0 -1.484375 "/></g></g></g><g fill="#000000" fill-opacity="1"><g transform="translate(337.518117, 167.82414)"><g><path d="M 0.390625 -11.71875 C 0.390625 -8.632812 -0.578125 -6.164062 -2.515625 -4.3125 C -4.453125 -2.457031 -7.113281 -1.53125 -10.5 -1.53125 L -30 -1.53125 C -34.207031 -1.53125 -37.378906 -2.363281 -39.515625 -4.03125 C -41.648438 -5.707031 -42.71875 -8.335938 -42.71875 -11.921875 C -42.71875 -15.046875 -41.863281 -17.554688 -40.15625 -19.453125 C -38.445312 -21.359375 -35.984375 -22.3125 -32.765625 -22.3125 L -25.46875 -22.3125 L -25.46875 -13.890625 L -31.734375 -13.890625 C -32.941406 -13.890625 -33.773438 -13.738281 -34.234375 -13.4375 C -34.691406 -13.144531 -34.921875 -12.640625 -34.921875 -11.921875 C -34.921875 -11.171875 -34.660156 -10.65625 -34.140625 -10.375 C -33.617188 -10.09375 -32.847656 -9.953125 -31.828125 -9.953125 L -10.59375 -9.953125 C -9.476562 -9.953125 -8.664062 -10.113281 -8.15625 -10.4375 C -7.644531 -10.769531 -7.390625 -11.265625 -7.390625 -11.921875 C -7.390625 -13.234375 -8.457031 -13.890625 -10.59375 -13.890625 L -18.234375 -13.890625 L -18.234375 -22.421875 L -10.25 -22.421875 C -3.15625 -22.421875 0.390625 -18.851562 0.390625 -11.71875 Z M 0.390625 -11.71875 "/></g></g></g><g fill="#000000" fill-opacity="1"><g transform="translate(337.518117, 144.472266)"><g><path d="M 0 -0.734375 L -42.3125 -4.828125 L -42.3125 -19.171875 L 0 -23.203125 L 0 -15.171875 L -6.84375 -14.578125 L -6.84375 -9.453125 L 0 -8.96875 Z M -13.59375 -10.09375 L -13.59375 -13.9375 L -35.125 -12.0625 L -35.125 -11.671875 Z M -13.59375 -10.09375 "/></g></g></g></svg>