<svg xmlns="http://www.w3.org/2000/svg" xmlns:xlink="http://www.w3.org/1999/xlink" width="500" zoomAndPan="magnify" viewBox="0 0 375 374.999991" height="500" preserveAspectRatio="xMidYMid meet" version="1.0"><defs><g/><clipPath id="e4a8cc5037"><path d="M 267.148438 124.164062 L 321.539062 124.164062 L 321.539062 241.835938 L 267.148438 241.835938 Z M 267.148438 124.164062 " clip-rule="nonzero"/></clipPath></defs><g fill="#ffffff" fill-opacity="1"><g transform="translate(39.942059, 241.124984)"><g><path d="M 15.203125 0 L 15.203125 -94.203125 L 1.359375 -94.203125 L 1.359375 -116.609375 L 52.40625 -116.609375 L 52.40625 -94.203125 L 38.546875 -94.203125 L 38.546875 0 Z M 15.203125 0 "/></g></g></g><g fill="#ffffff" fill-opacity="1"><g transform="translate(89.078958, 241.124984)"><g><path d="M 5.15625 0 L 5.15625 -116.609375 L 51.859375 -116.609375 L 51.859375 -94.078125 L 28.921875 -94.078125 L 28.921875 -71.40625 L 50.90625 -71.40625 L 50.90625 -49.40625 L 28.921875 -49.40625 L 28.921875 -22.671875 L 53.34375 -22.671875 L 53.34375 0 Z M 5.15625 0 "/></g></g></g><g fill="#ffffff" fill-opacity="1"><g transform="translate(140.38767, 241.124984)"><g><path d="M 32.3125 1.09375 C 23.800781 1.09375 16.988281 -1.578125 11.875 -6.921875 C 6.757812 -12.265625 4.203125 -19.597656 4.203125 -28.921875 L 4.203125 -82.671875 C 4.203125 -94.253906 6.507812 -102.984375 11.125 -108.859375 C 15.75 -114.742188 22.988281 -117.6875 32.84375 -117.6875 C 41.445312 -117.6875 48.375 -115.332031 53.625 -110.625 C 58.875 -105.925781 61.5 -99.144531 61.5 -90.28125 L 61.5 -70.1875 L 38.28125 -70.1875 L 38.28125 -87.421875 C 38.28125 -90.773438 37.875 -93.082031 37.0625 -94.34375 C 36.25 -95.613281 34.84375 -96.25 32.84375 -96.25 C 30.769531 -96.25 29.347656 -95.523438 28.578125 -94.078125 C 27.804688 -92.628906 27.421875 -90.5 27.421875 -87.6875 L 27.421875 -29.1875 C 27.421875 -26.113281 27.875 -23.875 28.78125 -22.46875 C 29.6875 -21.0625 31.039062 -20.359375 32.84375 -20.359375 C 36.46875 -20.359375 38.28125 -23.300781 38.28125 -29.1875 L 38.28125 -50.234375 L 61.765625 -50.234375 L 61.765625 -28.234375 C 61.765625 -8.679688 51.945312 1.09375 32.3125 1.09375 Z M 32.3125 1.09375 "/></g></g></g><g fill="#ffffff" fill-opacity="1"><g transform="translate(200.11215, 241.124984)"><g><path d="M 5.15625 0 L 5.15625 -116.609375 L 28.375 -116.609375 L 28.375 -74.9375 L 39.375 -74.9375 L 39.375 -116.609375 L 62.578125 -116.609375 L 62.578125 0 L 39.375 0 L 39.375 -52.9375 L 28.375 -52.9375 L 28.375 0 Z M 5.15625 0 "/></g></g></g><g clip-path="url(#e4a8cc5037)"><path fill="#ffffff" d="M 267.148438 124.164062 L 321.539062 124.164062 L 321.539062 241.871094 L 267.148438 241.871094 Z M 267.148438 124.164062 " fill-opacity="1" fill-rule="nonzero"/></g><g fill="#000000" fill-opacity="1"><g transform="translate(311.38797, 237.209285)"><g><path d="M 0 -0.640625 L -36.46875 -4.15625 L -36.46875 -16.515625 L 0 -20 L 0 -13.078125 L -5.90625 -12.5625 L -5.90625 -8.15625 L 0 -7.71875 Z M -11.71875 -8.703125 L -11.71875 -12.015625 L -30.265625 -10.40625 L -30.265625 -10.0625 Z M -11.71875 -8.703125 "/></g></g></g><g fill="#000000" fill-opacity="1"><g transform="translate(311.38797, 216.621975)"><g><path d="M 0 -1.609375 L -36.46875 -1.609375 L -36.46875 -16.21875 L -29.375 -16.21875 L -29.375 -8.953125 L -23.5625 -8.953125 L -23.5625 -15.828125 L -16.5625 -15.828125 L -16.5625 -8.953125 L 0 -8.953125 Z M 0 -1.609375 "/></g></g></g><g fill="#000000" fill-opacity="1"><g transform="translate(311.38797, 199.685198)"><g><path d="M -36.46875 -1.609375 L -36.46875 -12.828125 C -36.46875 -14.609375 -36.0625 -15.984375 -35.25 -16.953125 C -34.445312 -17.929688 -33.316406 -18.585938 -31.859375 -18.921875 C -30.398438 -19.265625 -28.539062 -19.4375 -26.28125 -19.4375 C -24.207031 -19.4375 -22.59375 -19.164062 -21.4375 -18.625 C -20.28125 -18.09375 -19.472656 -17.160156 -19.015625 -15.828125 C -18.785156 -16.929688 -18.234375 -17.726562 -17.359375 -18.21875 C -16.484375 -18.71875 -15.296875 -18.96875 -13.796875 -18.96875 L 0 -18.890625 L 0 -11.765625 L -14.265625 -11.765625 C -15.285156 -11.765625 -15.9375 -11.566406 -16.21875 -11.171875 C -16.5 -10.773438 -16.640625 -10.050781 -16.640625 -9 L 0 -9 L 0 -1.609375 Z M -22.96875 -10.78125 C -22.96875 -11.800781 -24.070312 -12.3125 -26.28125 -12.3125 C -27.238281 -12.3125 -27.957031 -12.269531 -28.4375 -12.1875 C -28.925781 -12.101562 -29.257812 -11.945312 -29.4375 -11.71875 C -29.625 -11.488281 -29.71875 -11.160156 -29.71875 -10.734375 L -29.71875 -9.046875 L -22.96875 -9.046875 Z M -22.96875 -10.78125 "/></g></g></g><g fill="#000000" fill-opacity="1"><g transform="translate(311.38797, 179.437481)"><g><path d="M 0 -1.28125 L -36.46875 -1.28125 L -36.46875 -8.328125 L 0 -8.328125 Z M 0 -1.28125 "/></g></g></g><g fill="#000000" fill-opacity="1"><g transform="translate(311.38797, 169.80177)"><g><path d="M 0.34375 -10.109375 C 0.34375 -7.441406 -0.488281 -5.304688 -2.15625 -3.703125 C -3.832031 -2.109375 -6.128906 -1.3125 -9.046875 -1.3125 L -25.859375 -1.3125 C -29.472656 -1.3125 -32.203125 -2.03125 -34.046875 -3.46875 C -35.890625 -4.914062 -36.8125 -7.1875 -36.8125 -10.28125 C -36.8125 -12.96875 -36.070312 -15.128906 -34.59375 -16.765625 C -33.125 -18.410156 -31.003906 -19.234375 -28.234375 -19.234375 L -21.953125 -19.234375 L -21.953125 -11.96875 L -27.34375 -11.96875 C -28.382812 -11.96875 -29.101562 -11.835938 -29.5 -11.578125 C -29.894531 -11.328125 -30.09375 -10.894531 -30.09375 -10.28125 C -30.09375 -9.625 -29.863281 -9.175781 -29.40625 -8.9375 C -28.957031 -8.695312 -28.296875 -8.578125 -27.421875 -8.578125 L -9.125 -8.578125 C -8.164062 -8.578125 -7.46875 -8.71875 -7.03125 -9 C -6.59375 -9.28125 -6.375 -9.707031 -6.375 -10.28125 C -6.375 -11.40625 -7.289062 -11.96875 -9.125 -11.96875 L -15.703125 -11.96875 L -15.703125 -19.3125 L -8.828125 -19.3125 C -2.710938 -19.3125 0.34375 -16.242188 0.34375 -10.109375 Z M 0.34375 -10.109375 "/></g></g></g><g fill="#000000" fill-opacity="1"><g transform="translate(311.38797, 149.68139)"><g><path d="M 0 -0.640625 L -36.46875 -4.15625 L -36.46875 -16.515625 L 0 -20 L 0 -13.078125 L -5.90625 -12.5625 L -5.90625 -8.15625 L 0 -7.71875 Z M -11.71875 -8.703125 L -11.71875 -12.015625 L -30.265625 -10.40625 L -30.265625 -10.0625 Z M -11.71875 -8.703125 "/></g></g></g></svg>